      <svg width="600" height="450" xmlns="http://www.w3.org/2000/svg">
        <ellipse
          cx="60px"
          cy="95px"
          rx="37px"
          ry="15px"
          stroke="#f2af33"
          fill="#f2af33"
          transform="rotate(12)"
        />
        <ellipse
          cx="120px"
          cy="160px"
          rx="37px"
          ry="15px"
          stroke="#d6d4c7"
          fill="#d6d4c7"
        />
        <circle
          cx="120px"
          cy="100px"
          r="60px"
          stroke="#f2af33"
          fill="#f2af33"
        />
        <circle cx="120px" cy="90px" r="20px" stroke="#f2af33" fill="white" />
        <circle cx="149px" cy="90px" r="20px" stroke="white" fill="white" />
        <circle cx="152px" cy="92px" r="5px" stroke="white" fill="black" />
        <circle cx="127px" cy="92px" r="5px" stroke="white" fill="black" />
        <circle cx="134px" cy="112px" r="8px" stroke="black" fill="black" />
        <ellipse
          cx="119px"
          cy="137px"
          rx="12px"
          ry="5px"
          stroke="#db2736"
          fill="#db2736"
        />
        <polygon points="6,101 30,95 26,113" stroke="white" fill="white" />
        <polygon points="65,40 70,65  100,45" stroke="#f2af33" fill="#f2af33" />
        <polygon points="70,45 75,60  90,50" stroke="black" fill="black" />
        <polygon
          points="155,30 130,45  170,65"
          stroke="#f2af33"
          fill="#f2af33"
        />
        <polygon points="152,37 140,44  160,55" stroke="black" fill="black" />
        <ellipse
          cx="320px"
          cy="160px"
          rx="37px"
          ry="15px"
          stroke="#d6d4c7"
          fill="#d6d4c7"
        />
        <circle
          cx="320px"
          cy="100px"
          r="60px"
          stroke="#ffe605"
          fill="#ffe605"
        />
        <circle cx="290px" cy="90px" r="20px" stroke="white" fill="white" />
        <circle cx="320px" cy="90px" r="20px" stroke="white" fill="white" />
        <circle cx="285px" cy="92px" r="5px" stroke="white" fill="black" />
        <circle cx="315px" cy="92px" r="5px" stroke="white" fill="black" />
        <ellipse
          cx="305px"
          cy="127px"
          rx="5px"
          ry="10px"
          stroke="#db2736"
          fill="#db2736"
        />
      </svg>

